<?xml version="1.0" encoding="UTF-8" standalone="no"?>
<!DOCTYPE svg PUBLIC "-//W3C//DTD SVG 1.1//EN"
"http://www.w3.org/Graphics/SVG/1.1/DTD/svg11.dtd">
<svg viewBox="0 0 935 1210" version="1.1" xmlns="http://www.w3.org/2000/svg" xmlns:xlink="http://www.w3.org/1999/xlink">
<defs>
<style type="text/css"><![CDATA[
.g0_154{
fill: none;
stroke: #0000EE;
stroke-width: 1.1453444;
stroke-linecap: square;
stroke-linejoin: miter;
}
]]></style>
</defs>
<path d="M7.6,23.5h96.3Zm0,20.6H97Zm0,20.6H74.1ZM90.1,85.4h20.6Zm28.6,0h20.7Zm28.7,0H168Zm28.6,0h20.6ZM117.6,106h32.1Zm40.1,0h28.6ZM7.6,126.6H114.2Zm0,20.6H71.8Zm0,20.7H115.3Zm63,20.6H99.3Zm36.7,0h28.6ZM7.6,209.1H64.9Zm73.3,20.6h20.7Zm28.7,0h20.6Zm28.6,0h20.6Zm28.6,0h20.7Zm28.7,0h20.6Zm28.6,0h28.6ZM7.6,250.4H124.5Zm0,20.6H182.9Zm0,20.6H80.9Zm154.7,20.6h20.6Zm28.6,0h20.6Zm28.6,0h20.6Zm28.7,0h20.6Zm28.6,0h20.6Zm28.6,0H326ZM53.5,332.9h68.7Zm0,20.6H169.1Zm0,20.6h80.1Zm0,20.6h53.8Zm0,20.7H172.6Zm0,20.6h40Zm0,20.6h60.7Zm0,20.6h85.9Zm0,20.7h61.8Zm0,20.6h54.9ZM7.6,539.1H99.3Zm0,20.6H116.5Zm0,20.7H171.4ZM91.3,601h20.6Zm28.6,0h20.6Zm28.6,0h28.7Zm36.7,0h32Zm40.1,0h28.6Zm36.6,0h28.6ZM69.5,667.4H90.1Zm28.6,0h28.7ZM62.6,688.1H83.2Zm28.7,0h28.6Zm-3.5,20.6h20.6Zm28.7,0h28.6ZM7.6,729.3H231Zm0,20.6H80.9Zm0,20.7h98.5Zm0,20.6h126Zm0,20.6H53.5Zm0,20.6H71.8Zm0,20.7H79.8Zm114.6,20.6h20.6Zm28.6,0h20.6Zm-34.3,20.6h20.6Zm28.6,0h20.6Zm-14.9,20.6h28.6Zm36.6,0h28.7ZM7.6,935.6h118Zm0,20.6h134Zm0,20.6H47.7Zm74.5,20.6h28.6Zm36.6,0h28.7Zm-17.1,20.7h20.6Zm28.6,0h28.6ZM7.6,1038.7H108.4Zm0,20.6H61.5Zm63,66.5H99.3Zm36.7,0h28.6ZM7.6,1146.4h63Zm0,20.6H79.8Zm0,20.7H161.1Z" class="g0_154" />
</svg>