<?xml version="1.0" encoding="UTF-8" standalone="no"?>
<!DOCTYPE svg PUBLIC "-//W3C//DTD SVG 1.1//EN"
"http://www.w3.org/Graphics/SVG/1.1/DTD/svg11.dtd">
<svg viewBox="0 0 935 1210" version="1.1" xmlns="http://www.w3.org/2000/svg" xmlns:xlink="http://www.w3.org/1999/xlink">
<defs>
<style type="text/css"><![CDATA[
.g0_158{
fill: none;
stroke: #0000EE;
stroke-width: 1.1453444;
stroke-linecap: square;
stroke-linejoin: miter;
}
]]></style>
</defs>
<path d="M53.4,23.5h73.4ZM7.6,44.1H155.4Zm0,20.6H68.3ZM105,85.4h28.6Zm36.6,0h32.1Zm41.3,0h28.6ZM7.6,106H64.9Zm0,20.6H150.8Zm143.2,0h58.4ZM7.6,147.2H129Zm0,20.7H40.9Zm33.3,0h67.5ZM7.6,188.5H108.4Zm0,20.6H91.2Zm0,20.6H145.1Zm0,20.7h47Zm0,20.6H55.7Zm0,20.6H59.2Zm57.3,20.6H85.5Zm28.6,0h20.7ZM7.6,378.7H42Zm0,20.6H86.7Zm0,66.5H97Zm0,20.6h126Zm0,20.6h98.5Zm45.8,20.7h87.1Zm198.2,20.6h22.9ZM7.6,568.9H118.7Zm0,20.6h99.7Zm0,20.7H168Zm0,20.6H94.7Zm0,20.6h102Zm0,66.5H61.5Zm0,20.6H146.2Zm0,20.6h96.2Zm0,20.6H59.2Zm0,20.7h95.1Zm0,20.6h102Zm0,20.6H80.9Zm0,20.6H108.4Zm0,20.7H116.4Zm0,20.6H123.3Zm0,20.6h118Zm0,66.5H59.2Zm0,20.6H52.3ZM66,1077.7H86.7Zm28.7,0h20.6Zm28.6,0h20.6Zm28.6,0h20.7Zm28.7,0h20.6Zm-173,20.6H67.2Zm0,20.6H39.7Zm71,20.6h28.7Zm36.7,0h28.6Z" class="g0_158" />
</svg>