<?xml version="1.0" encoding="UTF-8" standalone="no"?>
<!DOCTYPE svg PUBLIC "-//W3C//DTD SVG 1.1//EN"
"http://www.w3.org/Graphics/SVG/1.1/DTD/svg11.dtd">
<svg viewBox="0 0 935 1210" version="1.1" xmlns="http://www.w3.org/2000/svg" xmlns:xlink="http://www.w3.org/1999/xlink">
<defs>
<style type="text/css"><![CDATA[
.g0_150{
fill: none;
stroke: #0000EE;
stroke-width: 1.1453444;
stroke-linecap: square;
stroke-linejoin: miter;
}
]]></style>
</defs>
<path d="M7.6,23.5H68.3Zm110,20.6h20.6Zm28.6,0h28.7Zm36.7,0h28.6ZM7.6,64.7H178.3Zm0,20.7H82.1Zm0,20.6H74.1Zm0,20.6H131.3Zm0,20.6H53.5Zm134,20.7h20.7Zm28.7,0h20.6ZM7.6,188.5H61.5Zm0,20.6H119.9Zm39,20.6H67.2Zm28.6,0h28.6ZM247,250.4h28.6Zm36.7,0h28.6Zm-47,20.6h28.6Zm36.7,0H302ZM7.6,337.4H61.5Zm0,20.7h110Zm0,20.6H79.8ZM129,399.3h20.7Zm28.7,0h20.6Zm-19.5,20.6h20.6Zm28.6,0h20.7ZM7.6,440.6H97Zm0,20.6H271.1Zm0,20.6H50Zm0,20.6h95.1Zm0,20.7H140.5Zm0,20.6H71.8Zm80.2,20.6h28.6Zm36.7,0h28.6Zm36.6,0h28.6Zm36.7,0h28.6ZM53.5,584.9h89.3Zm0,20.7h53.8ZM7.6,626.2H86.7Zm0,20.6H110.7Zm0,20.6H95.8Zm104.3,20.7h20.6Zm28.6,0h20.6Zm-25.2,20.6h20.6Zm28.6,0h20.6ZM53.5,729.3H192ZM7.6,749.9H212.7Zm0,20.7h96.2Zm0,20.6H83.2Zm0,66.5H139.4Zm0,20.6H185.2Zm43.6,20.6H71.8Zm28.6,0h20.6Zm28.6,0H129Zm28.7,0h20.6Zm28.6,0h20.6Zm28.6,0H223Zm36.7,0h28.6ZM7.6,919.5H135.9Zm0,20.7H134.8Zm0,20.6H121Zm0,20.6H110.7ZM98.1,1002h28.7Zm36.7,0h28.6ZM7.6,1022.7H97Zm0,20.6H43.1Zm0,20.6H162.3Zm0,20.6H153.1Zm0,20.7H195.5Zm0,20.6H179.4Zm0,20.6H137.1Zm0,20.6H119.9Zm0,20.7H143.9Z" class="g0_150" />
</svg>