<?xml version="1.0" encoding="UTF-8" standalone="no"?>
<!DOCTYPE svg PUBLIC "-//W3C//DTD SVG 1.1//EN"
"http://www.w3.org/Graphics/SVG/1.1/DTD/svg11.dtd">
<svg viewBox="0 0 935 1210" version="1.1" xmlns="http://www.w3.org/2000/svg" xmlns:xlink="http://www.w3.org/1999/xlink">
<defs>
<style type="text/css"><![CDATA[
.g0_152{
fill: none;
stroke: #0000EE;
stroke-width: 1.1453444;
stroke-linecap: square;
stroke-linejoin: miter;
}
]]></style>
</defs>
<path d="M140.5,23.5h20.6Zm28.6,0h20.6Zm28.7,0h20.6ZM97,44.1h20.6Zm28.6,0h20.6Zm28.6,0h20.7Zm28.7,0h20.6Zm28.6,0h20.6Zm28.6,0h20.7Zm28.7,0h28.6Zm36.6,0h41.3ZM53.5,64.7h93.9Zm0,20.7H154.2ZM7.6,106h102Zm0,20.6H42Zm0,20.6H140.5Zm55,20.7H83.2Zm28.7,0h20.6Zm28.6,0h20.6Zm28.6,0h20.6Zm28.7,0h20.6Zm28.6,0h20.6Zm28.6,0h28.7Zm36.7,0h28.6Zm36.6,0h28.7ZM145.1,188.5h20.6Zm28.6,0h20.6ZM53.5,209.1h56.1ZM7.6,229.7H122.2Zm0,20.7H64.9Zm0,20.6H155.4Zm0,20.6h118Zm120.3,20.6h20.6Zm28.6,0h20.7ZM7.6,332.9H76.4Zm0,20.6H64.9Zm77.9,20.6h28.7ZM7.6,440.6H56.9Zm111.1,20.6h32.1ZM7.6,481.8H220.7Zm0,20.6H95.8Zm0,20.7H91.3Zm0,20.6H123.3Zm0,20.6H80.9Zm0,20.6H281.4Zm0,20.7h99.7Zm0,20.6h126Zm106.6,20.6h20.6Zm28.6,0h20.6ZM7.6,667.4H99.3Zm0,20.7H92.4Zm0,20.6H122.2Zm0,20.6H97Zm0,20.6H63.8Zm40.1,66.5H68.3Zm28.7,0H105ZM7.6,837H35.1Zm0,20.7H95.8Zm0,20.6H123.3Zm108.8,20.6h20.7Zm28.7,0h28.6ZM7.6,919.5H122.2Zm0,20.7H93.5Zm132.9,20.6h20.6Zm28.6,0h20.6Zm-19.4,20.6h20.6Zm28.6,0h20.6ZM7.6,1002H40.9Zm0,20.7H71.8ZM168,1043.3h20.6Zm28.6,0h20.6Zm28.7,0h28.6ZM7.6,1063.9H64.9Zm75.6,20.6h32.1Zm40.1,0h20.6ZM7.6,1105.2h94Zm0,20.6H75.2Zm0,20.6H37.4ZM66.1,1167H86.7Zm28.6,0h20.6Zm19.5,20.7h20.6Zm28.6,0h20.6Zm28.6,0H192Zm28.7,0h20.6Zm28.6,0h28.6Z" class="g0_152" />
</svg>