<?xml version="1.0" encoding="UTF-8" standalone="no"?>
<!DOCTYPE svg PUBLIC "-//W3C//DTD SVG 1.1//EN"
"http://www.w3.org/Graphics/SVG/1.1/DTD/svg11.dtd">
<svg viewBox="0 0 935 1210" version="1.1" xmlns="http://www.w3.org/2000/svg" xmlns:xlink="http://www.w3.org/1999/xlink">
<defs>
<style type="text/css"><![CDATA[
.g0_148{
fill: none;
stroke: #0000EE;
stroke-width: 1.1453444;
stroke-linecap: square;
stroke-linejoin: miter;
}
]]></style>
</defs>
<path d="M7.6,189.6H99.3Zm0,20.7h71Zm80.2,20.6h20.6Zm28.6,0h28.7Zm36.7,0h28.6Zm36.6,0h28.7ZM7.6,251.5H89Zm0,20.6H53.4Zm0,20.7H105Zm0,20.6H80.9ZM71.8,334H92.4Zm28.6,0H121Zm28.6,0h20.7Zm28.7,0h20.6Zm28.6,0h28.6ZM7.6,354.6H126.8Zm0,20.7H157.7Zm0,20.6H132.5Zm0,20.6h110Zm110,0h65.3ZM7.6,437.1H61.5Zm0,20.7H114.2Zm48.1,20.6H76.4Zm28.7,0H105Zm28.6,0h20.6Zm28.6,0h20.7Zm28.7,0h28.6ZM53.4,499H129Zm0,20.6H182.9ZM7.6,540.3H64.9Zm0,20.6h173Zm0,20.6h47Zm0,20.6h47Zm0,66.5H108.4Zm0,20.6H108.4Zm0,20.6H85.5Zm0,20.7H118.7Zm0,20.6H53.4Zm0,20.6H71.8Zm0,20.6H83.2Zm0,20.7H92.4Zm83.6,20.6h20.7Zm28.7,0h20.6ZM7.6,854.2H60.3Zm0,20.6h126Zm0,20.7H130.2Zm0,20.6H99.3ZM121,936.7h22.9Zm30.9,0h20.7ZM7.6,957.3H126.8Zm0,20.7H105Zm35.5,20.6H63.8Zm28.7,0h28.6ZM7.6,1019.2h92.8Zm0,20.6H64.9Zm0,20.7H124.5Zm0,20.6H91.2Zm0,20.6H58Zm110,20.6h20.6Zm28.6,0h20.6ZM7.6,1163.6H115.3Zm91.7,20.6h32Zm40,0H160Zm28.7,0h20.6Z" class="g0_148" />
</svg>