<?xml version="1.0" encoding="UTF-8" standalone="no"?>
<!DOCTYPE svg PUBLIC "-//W3C//DTD SVG 1.1//EN"
"http://www.w3.org/Graphics/SVG/1.1/DTD/svg11.dtd">
<svg viewBox="0 0 935 1210" version="1.1" xmlns="http://www.w3.org/2000/svg" xmlns:xlink="http://www.w3.org/1999/xlink">
<defs>
<style type="text/css"><![CDATA[
.g0_157{
fill: none;
stroke: #0000EE;
stroke-width: 1.1453444;
stroke-linecap: square;
stroke-linejoin: miter;
}
]]></style>
</defs>
<path d="M7.6,23.5H95.8Zm0,20.6h110Zm0,20.6H86.7Zm0,20.7H108.4ZM107.3,106h20.6Zm28.6,0h20.6Zm28.6,0h20.7Zm28.7,0h20.6Zm28.6,0h20.6Zm28.6,0h20.7Zm28.7,0h20.6Zm28.6,0h20.6Zm28.6,0H365Zm36.7,0h28.6ZM7.6,126.6H86.7ZM129,147.2h28.7Zm36.7,0h28.6ZM7.6,167.9H75.2Zm92.8,20.6H121Zm28.6,0h28.7ZM7.6,209.1H162.3Zm0,20.6H153.1Zm112.3,20.7h32Zm40.1,0h20.6ZM7.6,271h99.7Zm0,20.6H135.9Zm124.9,20.6h20.6Zm28.6,0H184Zm-63,20.7h28.7Zm36.7,0h28.6Zm36.6,0h28.7Zm36.7,0h28.6ZM7.6,353.5H53.4Zm66.5,20.6h28.6Zm36.6,0h28.6Zm36.7,0h32Zm40.1,0h28.6Zm36.6,0h28.6ZM7.6,394.7H92.4Zm0,20.7H94.7ZM68.3,436h32.1Zm40.1,0h28.7Zm36.7,0h28.6ZM7.6,456.6H110.7Zm92.8,20.6H129Zm36.7,0h28.6Zm-5.8,20.7h20.6Zm28.7,0h20.6ZM62.6,518.5H83.2Zm28.6,0h20.7ZM7.6,539.1H148.5Zm60.7,20.6h32.1Zm40.1,0H129Zm28.7,0h20.6Zm28.6,0h20.6Zm28.6,0h20.6Zm28.7,0h20.6ZM53.4,580.4H231Zm0,20.6h82.5Zm0,20.6h50.4Zm0,20.6h84.8Zm0,20.7H198.9Zm0,20.6h157Zm0,20.6h95.1Zm0,20.6H192Zm0,20.7H248.2Zm0,20.6h87.1Zm0,20.6H169.1Zm0,20.6h61.9Zm0,20.7h49.3Zm0,20.6H168Zm0,20.6h69.9Zm0,20.6H180.6ZM7.6,910.4H95.8Zm0,20.6H142.8Zm0,20.6H91.2Zm0,20.6H71.8Zm0,20.7H225.3Zm0,20.6H83.2Zm0,66.4h110Zm0,20.7H155.4Zm80.2,20.6h32.1Zm40.1,0h20.6Zm28.6,0h20.6Zm28.7,0h20.6Zm28.6,0h20.6Zm28.6,0H263Zm-189,20.6H170.3Zm0,20.6H193.2Zm0,20.7h110Z" class="g0_157" />
</svg>