<?xml version="1.0" encoding="UTF-8" standalone="no"?>
<!DOCTYPE svg PUBLIC "-//W3C//DTD SVG 1.1//EN"
"http://www.w3.org/Graphics/SVG/1.1/DTD/svg11.dtd">
<svg viewBox="0 0 935 1210" version="1.1" xmlns="http://www.w3.org/2000/svg" xmlns:xlink="http://www.w3.org/1999/xlink">
<defs>
<style type="text/css"><![CDATA[
.g0_156{
fill: none;
stroke: #0000EE;
stroke-width: 1.1453444;
stroke-linecap: square;
stroke-linejoin: miter;
}
]]></style>
</defs>
<path d="M72.9,23.5H93.5Zm28.7,0h20.6ZM53.4,44.1h58.5Zm0,20.6H162.3ZM165.7,85.4h20.6Zm28.6,0h20.6Zm28.7,0h28.6ZM7.6,106H98.1Zm0,20.6h99.7Zm0,20.6H83.2Zm0,66.5H59.2Zm0,66.5H79.8ZM97,300.8h20.6Zm28.6,0h20.6ZM7.6,321.4H87.8Zm0,20.6H158.8Zm71,20.7h28.7Zm36.7,0h28.6Zm20.6,20.6h41.2Zm49.3,0h41.2ZM7.6,403.9H232.1Zm0,20.6H184Zm73.3,20.7h28.7Zm36.7,0h41.2ZM90.1,465.8h20.6Zm28.6,0h20.6Zm28.7,0H168ZM7.6,486.4H31.7Zm0,20.6H92.4Zm0,20.7H131.3Zm123.7,0h102ZM7.6,548.3H146.2Zm0,20.6H146.2Zm0,20.6h92.8Zm0,20.7H52.3Zm0,66.4H95.8Zm41.3,20.6H69.5Zm28.6,0h28.6Zm36.7,0h28.6ZM53.4,717.9h56.2Zm0,20.6h63Zm0,20.6H169.1Zm0,20.6h56.2ZM7.6,800.4H121Zm0,20.6H173.7Zm0,20.6H56.9Zm0,20.6H139.3Zm0,20.7H108.4Zm0,20.6H74.1Zm0,20.6H82.1Zm0,20.6H97Zm107.7,20.7h32.1Zm40.1,0H176Zm28.6,0h20.6ZM63.8,986H84.4Zm28.6,0H121Zm-39,20.6h84.8Zm0,20.6h55Zm0,20.7h63Zm0,20.6h71.1Zm0,20.6H87.8ZM7.6,1109.7H115.3Zm0,20.7H131.3Zm0,20.6H121ZM160,1171.6h20.6Zm28.6,0h20.6Zm-181,20.6H92.4Z" class="g0_156" />
</svg>