<?xml version="1.0" encoding="UTF-8" standalone="no"?>
<!DOCTYPE svg PUBLIC "-//W3C//DTD SVG 1.1//EN"
"http://www.w3.org/Graphics/SVG/1.1/DTD/svg11.dtd">
<svg viewBox="0 0 935 1210" version="1.1" xmlns="http://www.w3.org/2000/svg" xmlns:xlink="http://www.w3.org/1999/xlink">
<defs>
<style type="text/css"><![CDATA[
.g0_153{
fill: none;
stroke: #0000EE;
stroke-width: 1.1453444;
stroke-linecap: square;
stroke-linejoin: miter;
}
]]></style>
</defs>
<path d="M7.6,23.5H190.9Zm0,20.6H42Zm0,20.6H79.8ZM45.4,85.4H66.1Zm28.7,0h28.6ZM61.5,106H82.1Zm28.6,0h20.6Zm28.6,0h20.7Zm28.7,0H176Zm-102,20.6H66.1Zm28.7,0h28.6ZM7.6,147.2H148.5Zm0,20.7H37.4Zm0,20.6H80.9Zm0,20.6H113Zm0,66.5H123.3Zm0,20.6h39Zm0,20.6h94Zm0,20.6h102Zm0,20.7H79.8Zm83.7,20.6h20.6Zm28.6,0h20.6Zm28.6,0h20.6Zm28.7,0h20.6Zm28.6,0h28.6ZM7.6,399.3H76.4Zm0,20.6H86.7Zm0,20.7H50Zm0,20.6H177.2Zm0,66.5H111.9Zm0,20.6h94Zm82.5,20.6h28.6Zm36.7,0h28.6ZM7.6,589.5H119.9Zm0,20.7h126Zm0,20.6h126Zm0,20.6H87.8Zm0,20.6h96.3Zm0,20.7h96.3Zm77.9,66.4h28.7Zm36.7,0h28.6ZM7.6,779.7H150.8Zm85.9,20.7h20.7Zm28.7,0h20.6Zm28.6,0h20.6ZM108.4,821H129Zm28.7,0h28.6Zm36.6,0h28.6Zm36.7,0H239ZM7.6,841.6H95.8Zm0,20.6H59.2Zm0,20.7H71.8Zm67.6,20.6H95.8Zm28.7,0h28.6Zm36.6,0h28.6ZM7.6,924.1H123.3Zm0,20.6H291.7Zm0,20.7H132.5Zm124.9,0h65.3ZM43.1,986H63.8Zm28.7,0H92.4Zm28.6,0H121Zm28.6,0h20.7ZM7.6,1006.6h63Zm0,20.6H36.3Zm0,66.5H74.1Zm0,20.6H121Zm0,20.6H115.3Zm0,20.7h110Zm0,20.6H132.5Zm0,20.6H121Z" class="g0_153" />
</svg>