<?xml version="1.0" encoding="UTF-8" standalone="no"?>
<!DOCTYPE svg PUBLIC "-//W3C//DTD SVG 1.1//EN"
"http://www.w3.org/Graphics/SVG/1.1/DTD/svg11.dtd">
<svg viewBox="0 0 935 1210" version="1.1" xmlns="http://www.w3.org/2000/svg" xmlns:xlink="http://www.w3.org/1999/xlink">
<defs>
<style type="text/css"><![CDATA[
.g0_151{
fill: none;
stroke: #0000EE;
stroke-width: 1.1453444;
stroke-linecap: square;
stroke-linejoin: miter;
}
]]></style>
</defs>
<path d="M108.4,23.5H129Zm28.7,0h20.6Zm28.6,0h20.6Zm28.6,0h20.6Zm28.7,0h20.6Zm28.6,0h28.6ZM53.5,44.1H234.4ZM7.6,64.7H163.4Zm0,20.7H66.1Zm0,20.6H143.9Zm0,20.6H93.5Zm0,20.6h39Zm0,20.7H37.4Zm56.2,20.6H84.4Zm28.6,0H113ZM7.6,209.1H165.7Zm116.9,20.6h28.6Zm36.6,0h28.6ZM7.6,250.4H67.2Zm0,20.6H80.9Zm72.2,20.6H121Zm49.2,0h41.3ZM80.9,358.1H113Zm40.1,0h20.6Zm28.7,0h20.6Zm28.6,0h20.6Zm28.6,0h20.6Zm28.7,0h28.6Zm36.6,0h28.6ZM7.6,378.7H169.1Zm0,20.6H114.2Zm0,20.6H44.3Zm262.3,20.7h20.6Zm28.7,0h28.6Zm36.6,0h28.6ZM7.6,461.2h118Zm0,20.6H168Zm0,20.6h118Zm119.2,20.7h20.6Zm28.6,0H176ZM7.6,543.7H154.2Zm0,20.6H59.2Zm0,20.6H138.2Zm58.5,20.7H94.7Zm36.6,0h28.6ZM7.6,626.2h31Zm0,20.6H78.7Zm0,20.6H84.4Zm45.9,20.7h80.1Zm0,20.6H209.2Zm0,20.6h40Zm0,20.6H280.2Zm0,20.7h52.6Zm20.6,20.6h28.6Zm36.6,0H152ZM53.5,811.8h61.8Zm0,20.6H105Zm61.8,20.7h20.6Zm28.6,0h20.7Zm28.7,0h20.6Zm28.6,0h28.6Zm36.7,0h28.6ZM7.6,873.7H129Zm0,20.6h55Zm0,20.6H108.4Zm0,20.7H115.3Zm0,20.6H74.1Zm0,20.6H111.9Zm45.9,41.3h81.3Zm0,20.6h87Zm0,20.6H220.7Zm40,66.5h32.1Zm40.1,0h28.7Zm-49.2,20.6h32Zm40.1,0h20.6Zm28.6,0h20.6Zm28.6,0h20.6Zm28.7,0H239ZM121,1167h20.6Zm28.7,0h28.6ZM7.6,1187.7H50Z" class="g0_151" />
</svg>