<?xml version="1.0" encoding="UTF-8" standalone="no"?>
<!DOCTYPE svg PUBLIC "-//W3C//DTD SVG 1.1//EN"
"http://www.w3.org/Graphics/SVG/1.1/DTD/svg11.dtd">
<svg viewBox="0 0 935 1210" version="1.1" xmlns="http://www.w3.org/2000/svg" xmlns:xlink="http://www.w3.org/1999/xlink">
<defs>
<style type="text/css"><![CDATA[
.g0_155{
fill: none;
stroke: #0000EE;
stroke-width: 1.1453444;
stroke-linecap: square;
stroke-linejoin: miter;
}
]]></style>
</defs>
<path d="M7.6,23.5H53.5Zm0,20.6H64.9Zm57.3,0h74.5ZM7.6,64.7H76.4Zm0,66.5H108.4Zm0,20.6H87.8Zm59.6,20.6H99.3Zm40.1,0h20.6Zm28.6,0h28.7Zm36.7,0h28.6Zm36.6,0h28.7ZM86.7,193.1h20.6Zm28.6,0h20.6Zm28.6,0h28.7ZM7.6,213.7h55Zm0,20.6h98.5Zm0,20.6H115.3Zm0,20.7H113Zm95.1,20.6h20.6Zm28.6,0H160ZM7.6,316.8H146.2Zm0,20.6H55.7Zm0,20.7H121Zm56.2,20.6h32Zm40.1,0h20.6Zm28.6,0h20.6Zm28.6,0h20.6Zm28.7,0h20.6Zm28.6,0H239Zm28.6,0h20.6Zm28.7,0h20.6Zm28.6,0h20.6Zm28.6,0h20.6Zm28.7,0h20.6Zm28.6,0h20.6Zm28.6,0h28.7Zm36.7,0h28.6Zm36.6,0h28.7Zm36.7,0h28.6Zm36.6,0h28.7Zm36.7,0h28.6Zm36.6,0h28.7Zm36.7,0H704Zm36.6,0h28.7ZM138.2,399.3h32.1ZM53.5,419.9H188.6Zm0,20.7h75.6ZM7.6,461.2H115.3Zm0,20.6H36.3Zm0,20.6h92.8Zm0,20.7H64.9Zm137.5,20.6h20.6Zm28.6,0h20.6ZM53.5,564.3h90.4ZM7.6,584.9H97Zm0,20.7H68.3Zm85.9,20.6h20.7Zm28.7,0h28.6Zm36.6,0h28.7ZM7.6,646.8H76.4Zm0,20.6H91.3Zm0,20.7h63Zm71.1,0H99.3Zm28.6,0h20.6ZM7.6,708.7H99.3Zm0,20.6H185.2Zm0,20.6H89Zm0,20.7H146.2Zm0,20.6H56.9Zm63,20.6H91.3Zm28.7,0h20.6Zm28.6,0h20.6ZM53.5,832.4H164.6ZM7.6,853.1H42Zm53.9,20.6H82.1Zm28.6,0h28.6ZM53.5,894.3h60.7ZM7.6,914.9H50Zm0,20.7h55Zm0,20.6h55Zm0,20.6H139.4Zm0,20.6H78.7Zm79.1,20.7h20.6Zm28.6,0h20.6Zm28.6,0h20.7Zm-90.4,20.6h90.4Zm0,20.6H170.3ZM7.6,1079.9H153.1Zm0,20.7H98.1Zm0,20.6H99.3Zm0,20.6H51.2Zm0,20.6H132.5ZM58,1183.1H78.7Zm28.7,0h20.6Zm28.6,0h20.6Zm28.6,0h20.7Z" class="g0_155" />
</svg>