<?xml version="1.0" encoding="UTF-8" standalone="no"?>
<!DOCTYPE svg PUBLIC "-//W3C//DTD SVG 1.1//EN"
"http://www.w3.org/Graphics/SVG/1.1/DTD/svg11.dtd">
<svg viewBox="0 0 935 1210" version="1.1" xmlns="http://www.w3.org/2000/svg" xmlns:xlink="http://www.w3.org/1999/xlink">
<defs>
<style type="text/css"><![CDATA[
.g0_149{
fill: none;
stroke: #0000EE;
stroke-width: 1.1453444;
stroke-linecap: square;
stroke-linejoin: miter;
}
]]></style>
</defs>
<path d="M154.2,23.5h20.7Zm28.7,0h28.6ZM7.6,44.1H124.5ZM53.5,85.4H213.8Zm0,20.6h53.8Zm0,20.6H170.3ZM7.6,193.1H160Zm0,20.6H171.4Zm187.9,20.6h20.6Zm28.6,0h20.6ZM87.8,254.9h20.6Zm28.6,0h20.7Zm28.7,0h20.6ZM7.6,275.6H75.2Zm0,20.6H302Zm0,20.6H241.3Zm0,20.6H138.2Zm0,20.7H89Zm47,20.6H75.2Zm28.6,0h20.6Zm28.7,0h28.6Zm36.6,0h28.6Zm-95,20.6H163.4ZM7.6,419.9H71.8Zm45.9,20.7H209.2Zm0,20.6H197.8Zm0,20.6H213.8Zm0,20.6H201.2Zm0,20.7H180.6Zm0,20.6H178.3Zm0,20.6H236.7Zm0,20.6H177.1Zm74.4,20.7h28.6Zm36.6,0h28.7Zm36.7,0h28.6ZM7.6,626.2H119.9Zm0,20.6H84.4Zm0,20.6H116.4Zm0,20.7H93.5Zm0,20.6H113Zm45.9,41.2h111Zm0,20.7h65.2ZM7.6,791.2H118.7Zm0,20.6H63.8Zm0,20.6H99.3Zm84.8,20.7H113Zm28.6,0h20.6Zm28.7,0h28.6Zm36.6,0h41.2Zm-29.8,20.6h20.6Zm28.7,0h20.6ZM53.5,894.3h73.3Zm0,20.6h56.1Zm0,20.7h40Zm0,20.6H169.1Zm0,20.6h97.3Zm0,20.6H99.3ZM7.6,1018.1H95.8Zm0,20.6H118.7Zm45.9,20.6h98.4Zm0,20.6H154.2ZM7.6,1100.6H130.2Zm77.9,20.6h28.7Zm36.7,0h28.6Zm-68.7,20.6H166.8Zm0,20.6h80.1ZM7.6,1183.1H206.9Z" class="g0_149" />
</svg>